<svg width="207" height="54" viewBox="0 0 207 54" fill="none" xmlns="http://www.w3.org/2000/svg">
<mask id="mask0_76_8" style="mask-type:luminance" maskUnits="userSpaceOnUse" x="0" y="0" width="207" height="54">
<path d="M206.357 0H0.642578V54H206.357V0Z" fill="white"/>
</mask>
<g mask="url(#mask0_76_8)">
<path d="M39.2194 18.6721C41.5925 18.6721 43.5086 19.3993 44.9685 20.8528C46.4278 22.3071 47.1577 24.4635 47.1577 27.3233V38.5225H41.6033V28.1966C41.6033 26.646 41.2708 25.4886 40.6058 24.7246C39.9421 23.961 38.9821 23.5787 37.7247 23.5787C36.3235 23.5787 35.208 24.0217 34.3774 24.9069C33.5464 25.7911 33.1313 27.1056 33.1313 28.8503V38.5225H27.5791V18.9609H32.8825V21.2524C33.6182 20.4289 34.5317 19.7925 35.6236 19.3444C36.7149 18.8962 37.9134 18.6721 39.2194 18.6721Z" fill="#00A985"/>
<path d="M63.8161 18.6721C66.189 18.6721 68.1051 19.3993 69.5651 20.8528C71.0243 22.3071 71.7542 24.4635 71.7542 27.3233V38.5225H66.1998V28.1966C66.1998 26.646 65.8674 25.4886 65.2025 24.7246C64.5387 23.961 63.5787 23.5787 62.3212 23.5787C60.9202 23.5787 59.8046 24.0217 58.9741 24.9069C58.1428 25.7911 57.7279 27.1056 57.7279 28.8503V38.5225H52.1758V18.9609H57.4791V21.2524C58.2146 20.4289 59.1284 19.7925 60.2202 19.3444C61.3114 18.8962 62.5101 18.6721 63.8161 18.6721Z" fill="#00A985"/>
<path d="M85.8841 38.8136C83.8679 38.8136 82.0586 38.3834 80.4563 37.5222C78.8551 36.6618 77.6033 35.4681 76.7019 33.9417C75.8003 32.4142 75.3496 30.681 75.3496 28.7417C75.3496 26.803 75.8003 25.0704 76.7019 23.5441C77.6033 22.0165 78.8551 20.8229 80.4563 19.9635C82.0586 19.103 83.8679 18.6721 85.8841 18.6721C87.9014 18.6721 89.7045 19.103 91.2937 19.9635C92.8843 20.8229 94.1304 22.0165 95.0322 23.5441C95.9335 25.0704 96.3847 26.803 96.3847 28.7417C96.3847 30.681 95.9335 32.4142 95.0322 33.9417C94.1304 35.4681 92.8843 36.6618 91.2937 37.5222C89.7045 38.3834 87.9014 38.8136 85.8841 38.8136ZM85.8841 34.1588C87.3089 34.1588 88.4782 33.6684 89.3918 32.6873C90.3056 31.705 90.7622 30.3899 90.7622 28.7417C90.7622 27.0941 90.3056 25.7795 89.3918 24.7984C88.4782 23.8161 87.3089 23.3246 85.8841 23.3246C84.4604 23.3246 83.2862 23.8161 82.3605 24.7984C81.4344 25.7795 80.9719 27.0941 80.9719 28.7417C80.9719 30.3899 81.4344 31.705 82.3605 32.6873C83.2862 33.6684 84.4604 34.1588 85.8841 34.1588Z" fill="#00A985"/>
<path d="M100.088 11.5454H105.64V38.5222H100.088V11.5454Z" fill="#545454"/>
<path d="M129.561 28.8156C129.561 28.8884 129.525 29.3972 129.453 30.3426H114.967C115.228 31.5549 115.845 32.5128 116.817 33.2163C117.79 33.9185 119 34.2696 120.447 34.2696C121.445 34.2696 122.33 34.1183 123.1 33.8146C123.872 33.5113 124.59 33.0327 125.253 32.3777L128.209 35.6511C126.404 37.7596 123.77 38.8136 120.307 38.8136C118.146 38.8136 116.235 38.3834 114.573 37.5222C112.913 36.6618 111.633 35.4681 110.731 33.9417C109.829 32.4142 109.379 30.681 109.379 28.7417C109.379 26.8278 109.823 25.1009 110.713 23.5625C111.603 22.0229 112.824 20.8229 114.379 19.9635C115.933 19.103 117.673 18.6721 119.594 18.6721C121.469 18.6721 123.164 19.0844 124.683 19.9081C126.203 20.7321 127.395 21.9143 128.261 23.4539C129.128 24.9924 129.561 26.7798 129.561 28.8156ZM119.629 22.9619C118.371 22.9619 117.314 23.3258 116.46 24.0523C115.607 24.7794 115.085 25.7727 114.895 27.0322H124.328C124.138 25.7975 123.616 24.81 122.761 24.0708C121.907 23.3315 120.863 22.9619 119.629 22.9619Z" fill="#545454"/>
<path d="M153.018 18.9609V35.2491C153.018 38.8373 152.104 41.5037 150.277 43.2489C148.45 44.9936 145.781 45.8661 142.268 45.8661C140.418 45.8661 138.663 45.6357 137.001 45.1754C135.34 44.7146 133.963 44.0488 132.871 43.1773L135.079 39.1047C135.885 39.7838 136.906 40.3226 138.139 40.7216C139.374 41.122 140.607 41.3223 141.841 41.3223C143.764 41.3223 145.182 40.8794 146.096 39.994C147.009 39.1098 147.465 37.7711 147.465 35.9768V35.1406C146.019 36.7657 144 37.5776 141.413 37.5776C139.658 37.5776 138.051 37.1843 136.592 36.3972C135.133 35.609 133.975 34.5002 133.119 33.0707C132.267 31.6402 131.84 29.9915 131.84 28.1249C131.84 26.2583 132.267 24.6108 133.119 23.1814C133.975 21.7509 135.133 20.6421 136.592 19.855C138.051 19.0667 139.658 18.6721 141.413 18.6721C144.19 18.6721 146.303 19.6049 147.751 21.4696V18.9609H153.018ZM142.518 32.923C143.989 32.923 145.193 32.4812 146.132 31.597C147.068 30.7115 147.538 29.5543 147.538 28.1249C147.538 26.6943 147.068 25.5371 146.132 24.6529C145.193 23.7675 143.989 23.3246 142.518 23.3246C141.048 23.3246 139.837 23.7675 138.887 24.6529C137.938 25.5371 137.462 26.6943 137.462 28.1249C137.462 29.5543 137.938 30.7115 138.887 31.597C139.837 32.4812 141.048 32.923 142.518 32.923Z" fill="#545454"/>
<path d="M165.905 18.6721C168.871 18.6721 171.148 19.3929 172.737 20.8343C174.328 22.2758 175.124 24.4514 175.124 27.3602V38.5225H169.925V36.0855C168.883 37.9046 166.937 38.8136 164.09 38.8136C162.617 38.8136 161.342 38.5594 160.262 38.0513C159.182 37.5419 158.358 36.8385 157.788 35.9421C157.219 35.0448 156.935 34.026 156.935 32.886C156.935 31.0691 157.604 29.6393 158.944 28.5962C160.286 27.5537 162.356 27.0322 165.157 27.0322H169.571C169.571 25.7975 169.203 24.8464 168.469 24.1794C167.731 23.513 166.628 23.1791 165.157 23.1791C164.136 23.1791 163.133 23.3431 162.149 23.6712C161.163 23.9981 160.329 24.4398 159.64 24.9971L157.646 21.0354C158.691 20.284 159.942 19.7025 161.402 19.2913C162.862 18.8789 164.362 18.6721 165.905 18.6721ZM165.477 34.995C166.426 34.995 167.268 34.7711 168.003 34.3229C168.74 33.8747 169.262 33.2139 169.571 32.3408V30.3426H165.762C163.484 30.3426 162.346 31.1061 162.346 32.6319C162.346 33.359 162.624 33.9347 163.181 34.3598C163.737 34.7837 164.504 34.995 165.477 34.995Z" fill="#545454"/>
<path d="M180.142 11.5454H185.693V38.5222H180.142V11.5454Z" fill="#545454"/>
<path d="M197.299 38.8136C195.707 38.8136 194.153 38.6138 192.636 38.2152C191.117 37.8151 189.906 37.3114 189.005 36.7045L190.855 32.6319C191.71 33.1896 192.742 33.6449 193.951 33.9972C195.162 34.3482 196.349 34.5238 197.512 34.5238C199.863 34.5238 201.038 33.9296 201.038 32.7404C201.038 32.1849 200.716 31.7858 200.076 31.5439C199.436 31.3007 198.45 31.0946 197.12 30.9247C195.553 30.6816 194.26 30.4026 193.239 30.0885C192.219 29.7732 191.336 29.2154 190.589 28.4159C189.841 27.6156 189.466 26.4755 189.466 24.9971C189.466 23.7606 189.816 22.6639 190.517 21.7076C191.218 20.7501 192.238 20.0045 193.579 19.4714C194.918 18.939 196.502 18.6721 198.33 18.6721C199.684 18.6721 201.031 18.8241 202.372 19.1271C203.711 19.4293 204.82 19.8469 205.699 20.3793L203.848 24.415C202.163 23.4465 200.323 22.9619 198.33 22.9619C197.143 22.9619 196.252 23.1317 195.658 23.4701C195.067 23.8091 194.771 24.2458 194.771 24.78C194.771 25.3852 195.09 25.8096 195.732 26.0528C196.372 26.2947 197.393 26.5251 198.794 26.7436C200.36 27.0104 201.641 27.295 202.639 27.5982C203.635 27.9002 204.5 28.4518 205.237 29.2523C205.972 30.0515 206.34 31.1667 206.34 32.5973C206.34 33.8077 205.984 34.8859 205.272 35.8313C204.559 36.7773 203.522 37.5107 202.156 38.0328C200.792 38.5531 199.172 38.8136 197.299 38.8136Z" fill="#545454"/>
<mask id="mask1_76_8" style="mask-type:luminance" maskUnits="userSpaceOnUse" x="19" y="29" width="6" height="4">
<path d="M19.2578 29.1733H24.8874V32.077H19.2578V29.1733Z" fill="white"/>
</mask>
<g mask="url(#mask1_76_8)">
<mask id="mask2_76_8" style="mask-type:luminance" maskUnits="userSpaceOnUse" x="19" y="29" width="7" height="4">
<path d="M23.6021 29.1733C24.4135 29.1733 25.0718 29.8235 25.0718 30.6252C25.0718 31.4268 24.4135 32.077 23.6021 32.077H20.7276C19.9161 32.077 19.2578 31.4268 19.2578 30.6252C19.2578 29.8235 19.9161 29.1733 20.7276 29.1733H23.6021Z" fill="white"/>
</mask>
<g mask="url(#mask2_76_8)">
<path d="M19.2578 29.1733H25.0671V32.077H19.2578V29.1733Z" fill="#00A985"/>
</g>
</g>
<path d="M6.9209 19.6409H20.6578" stroke="#00A985" stroke-width="1.94945" stroke-linecap="round"/>
<mask id="mask3_76_8" style="mask-type:luminance" maskUnits="userSpaceOnUse" x="11" y="19" width="6" height="21">
<path d="M11.085 19.5247H16.4923V39.3034H11.085V19.5247Z" fill="white"/>
</mask>
<g mask="url(#mask3_76_8)">
<path d="M11.085 19.5247H16.4923V39.3091H11.085V19.5247Z" fill="#00A985"/>
</g>
<mask id="mask4_76_8" style="mask-type:luminance" maskUnits="userSpaceOnUse" x="10" y="10" width="8" height="7">
<path d="M10.2969 10.3081H17.2988V16.8237H10.2969V10.3081Z" fill="white"/>
</mask>
<g mask="url(#mask4_76_8)">
<mask id="mask5_76_8" style="mask-type:luminance" maskUnits="userSpaceOnUse" x="10" y="10" width="8" height="7">
<path d="M13.7894 10.3081C11.8607 10.3081 10.2969 11.7664 10.2969 13.5659C10.2969 15.3649 11.8607 16.8237 13.7894 16.8237C15.718 16.8237 17.2818 15.3649 17.2818 13.5659C17.2818 11.7664 15.718 10.3081 13.7894 10.3081Z" fill="white"/>
</mask>
<g mask="url(#mask5_76_8)">
<path d="M10.2969 10.3081H17.2739V16.8237H10.2969V10.3081Z" fill="#00A985"/>
</g>
</g>
<path d="M18.249 29.6804H25.7523" stroke="#00A985" stroke-width="0.824768" stroke-linecap="round"/>
<path d="M21.2744 19.6755L25.8858 29.2976" stroke="#00A985" stroke-width="1.27464" stroke-linecap="round"/>
<path d="M21.6275 21.2769L18.1436 29.3634" stroke="#00A985" stroke-width="1.27464" stroke-linecap="round"/>
<path d="M18.043 29.7543C20.6896 33.5301 23.3294 33.5202 25.9614 29.7266" stroke="#00A985" stroke-width="0.824768" stroke-linecap="round"/>
<mask id="mask6_76_8" style="mask-type:luminance" maskUnits="userSpaceOnUse" x="2" y="29" width="7" height="4">
<path d="M2.74316 29.186H8.37282V32.0897H2.74316V29.186Z" fill="white"/>
</mask>
<g mask="url(#mask6_76_8)">
<mask id="mask7_76_8" style="mask-type:luminance" maskUnits="userSpaceOnUse" x="2" y="29" width="7" height="4">
<path d="M6.94463 29.186C7.7294 29.186 8.36604 29.8362 8.36604 30.6379C8.36604 31.4395 7.7294 32.0897 6.94463 32.0897H4.16457C3.3798 32.0897 2.74316 31.4395 2.74316 30.6379C2.74316 29.8362 3.3798 29.186 4.16457 29.186H6.94463Z" fill="white"/>
</mask>
<g mask="url(#mask7_76_8)">
<path d="M2.74316 29.186H8.36152V32.0892H2.74316V29.186Z" fill="#00A985"/>
</g>
</g>
<path d="M1.7334 29.6931H9.2368" stroke="#00A985" stroke-width="0.824768" stroke-linecap="round"/>
<path d="M5.92773 21.2754L9.4038 29.2941" stroke="#00A985" stroke-width="1.27464" stroke-linecap="round"/>
<path d="M6.31462 19.6755L1.66309 29.3922" stroke="#00A985" stroke-width="1.27464" stroke-linecap="round"/>
<path d="M1.52734 29.7669C4.17397 33.5428 6.8138 33.533 9.44574 29.7393" stroke="#00A985" stroke-width="0.824768" stroke-linecap="round"/>
</g>
</svg>
