<svg width="77" height="36" viewBox="0 0 77 36" fill="none" xmlns="http://www.w3.org/2000/svg">
<mask id="mask0_73_539" style="mask-type:luminance" maskUnits="userSpaceOnUse" x="0" y="0" width="77" height="36">
<path d="M76.866 0H0V36H76.866V0Z" fill="white"/>
</mask>
<g mask="url(#mask0_73_539)">
<path d="M0.333551 5.08349C0.196133 4.49858 0.104514 4.08985 0.0622313 3.8573C0.0222366 3.6482 0.0010135 3.43594 -0.00118986 3.22306C-0.0118259 2.74026 0.110038 2.26377 0.351164 1.84536C0.585938 1.4475 0.897327 1.10019 1.26729 0.823531C1.64567 0.545442 2.07037 0.336669 2.52166 0.206912C2.97872 0.0687937 3.45362 -0.00125303 3.93108 -0.000975789C4.3892 -0.00847909 4.84464 0.0704167 5.27355 0.231579C5.64006 0.367063 5.97385 0.578382 6.25309 0.85172C6.57167 1.16169 6.8068 1.5471 6.93666 1.9722C7.0682 2.39503 7.20209 2.88128 7.33834 3.43095L12.2008 23.7688C12.3559 24.4735 12.4897 25.1312 12.6025 25.742C12.7117 26.3515 12.8139 26.8977 12.8985 27.3804C12.9866 27.9477 13.0535 28.4657 13.1064 28.9273H13.2086C13.279 28.4798 13.353 27.9724 13.4411 27.4051L13.7371 25.7666C13.8498 25.1394 13.9978 24.4629 14.1881 23.7406L18.9836 3.97358C19.3266 2.51248 19.9068 1.48478 20.7243 0.89048C21.5417 0.296176 22.6211 -0.000975789 23.9624 -0.000975789C25.3037 -0.000975789 26.3842 0.296176 27.204 0.89048C28.0239 1.48478 28.6041 2.5207 28.9447 3.99824L33.6592 23.6913C33.8142 24.3795 33.9563 25.0373 34.0855 25.6645C34.2124 26.2916 34.3216 26.8554 34.4097 27.3557C34.5119 27.923 34.607 28.4657 34.6916 28.9801H34.7937C34.8818 28.448 34.9664 27.8949 35.0545 27.3276C35.1391 26.8307 35.2377 26.2705 35.3505 25.6504C35.4632 25.0302 35.5936 24.396 35.7486 23.7406L40.3046 3.45562C40.442 2.88833 40.5724 2.39855 40.6922 1.96163C40.8006 1.55196 41.0144 1.17781 41.3123 0.876382C41.6116 0.581324 41.9726 0.356293 42.3694 0.217482C42.7974 0.0685819 43.248 -0.00532075 43.7013 -0.000975789C44.1511 -0.00105455 44.5986 0.0642267 45.0296 0.19282C45.4569 0.314389 45.859 0.511271 46.2171 0.774202C46.5656 1.02603 46.8593 1.34611 47.0803 1.71499C47.3153 2.0999 47.4374 2.54309 47.4327 2.99403C47.4327 3.0786 47.4327 3.17021 47.4327 3.26182C47.4327 3.35343 47.4045 3.47323 47.3798 3.61418C47.3552 3.75512 47.3199 3.92073 47.2777 4.11804C47.2354 4.31536 47.179 4.55496 47.1085 4.82275L40.3539 31.3796C40.1878 32.0304 39.9758 32.6686 39.7197 33.2894C39.5117 33.8158 39.2002 34.2951 38.8035 34.6988C38.333 35.1608 37.7575 35.5017 37.1263 35.6924C36.3395 35.9229 35.5219 36.031 34.7021 36.0131C33.9066 36.0329 33.1131 35.9246 32.3519 35.6924C31.7403 35.4928 31.1839 35.1525 30.7276 34.6988C30.3348 34.2994 30.0352 33.8181 29.8502 33.2894C29.6192 32.6634 29.4204 32.026 29.2548 31.3796L24.6319 12.4124C24.4956 11.8275 24.37 11.2403 24.2548 10.6507C24.1456 10.0587 24.0434 9.51963 23.9589 9.0369C23.8743 8.46961 23.7862 7.93756 23.7017 7.43722H23.5959C23.529 7.95518 23.4515 8.49428 23.3669 9.0651C23.2788 9.54782 23.1802 10.0798 23.0674 10.6647C22.9547 11.2496 22.8313 11.8416 22.6939 12.4441L18.0957 31.3796C17.9054 32.1031 17.7081 32.7397 17.5037 33.2894C17.316 33.8168 17.0168 34.2975 16.6264 34.6988C16.1627 35.1486 15.6005 35.4839 14.9844 35.6784C14.2151 35.9116 13.4132 36.0199 12.6096 35.999C11.798 36.0156 10.9887 35.9074 10.21 35.6784C9.57923 35.4868 9.0039 35.1459 8.53282 34.6847C8.1386 34.279 7.8274 33.8003 7.6167 33.2753C7.36024 32.6549 7.14944 32.0166 6.98598 31.3655L0.333551 5.08349Z" fill="url(#paint0_linear_73_539)"/>
<path d="M50.1576 6.21545C49.6474 5.91906 49.217 5.50308 48.9033 5.00335C48.6717 4.59642 48.5502 4.13614 48.5509 3.66793C48.5545 3.24416 48.6369 2.82476 48.794 2.43116C48.9564 2.01351 49.1954 1.6299 49.4987 1.30011C49.7997 0.968818 50.1577 0.694315 50.5558 0.489695C50.9644 0.284324 51.4164 0.180384 51.8736 0.186671C52.2036 0.182822 52.5317 0.237701 52.8426 0.34875C53.2409 0.510519 53.6212 0.713648 53.9771 0.954799L74.8858 14.5909C75.5343 14.9695 76.0771 15.505 76.4644 16.1483C76.7395 16.6942 76.8786 17.2987 76.8696 17.91C76.8737 18.5166 76.7272 19.1147 76.4432 19.6507C76.0589 20.2946 75.5246 20.8362 74.8858 21.2292L53.8045 34.9463C53.415 35.1907 53.0088 35.4073 52.5889 35.5947C52.2685 35.7283 51.9247 35.7966 51.5776 35.7955C51.1505 35.7962 50.7288 35.6998 50.3444 35.5136C49.9705 35.3365 49.6343 35.0889 49.3543 34.7843C49.0792 34.4808 48.8598 34.1314 48.7059 33.7519C48.5495 33.3877 48.4668 32.996 48.4628 32.5997C48.4434 32.1059 48.5657 31.6168 48.8152 31.1902C49.1263 30.7315 49.5251 30.3387 49.9885 30.0345L68.1911 18.1531L50.1576 6.21545Z" fill="url(#paint1_linear_73_539)"/>
<path d="M50.9257 20.4576C52.2879 20.4576 53.3922 19.3533 53.3922 17.9911C53.3922 16.6289 52.2879 15.5246 50.9257 15.5246C49.5635 15.5246 48.4592 16.6289 48.4592 17.9911C48.4592 19.3533 49.5635 20.4576 50.9257 20.4576Z" fill="url(#paint2_linear_73_539)"/>
</g>
<defs>
<linearGradient id="paint0_linear_73_539" x1="88.5" y1="18" x2="24.1128" y2="-31.2116" gradientUnits="userSpaceOnUse">
<stop stop-color="#4F46E5"/>
<stop offset="0.5" stop-color="#3B82F6"/>
<stop offset="1" stop-color="#2DD4BF"/>
</linearGradient>
<linearGradient id="paint1_linear_73_539" x1="88.5" y1="18" x2="24.1128" y2="-31.2116" gradientUnits="userSpaceOnUse">
<stop stop-color="#4F46E5"/>
<stop offset="0.5" stop-color="#3B82F6"/>
<stop offset="1" stop-color="#2DD4BF"/>
</linearGradient>
<linearGradient id="paint2_linear_73_539" x1="88.5" y1="18" x2="24.1128" y2="-31.2116" gradientUnits="userSpaceOnUse">
<stop stop-color="#4F46E5"/>
<stop offset="0.5" stop-color="#3B82F6"/>
<stop offset="1" stop-color="#2DD4BF"/>
</linearGradient>
</defs>
</svg>
