<svg width="40" height="40" viewBox="0 0 40 40" fill="none" xmlns="http://www.w3.org/2000/svg">
<rect width="40" height="40" rx="20" fill="white"/>
<g clip-path="url(#clip0_1205_243)">
<mask id="mask0_1205_243" style="mask-type:luminance" maskUnits="userSpaceOnUse" x="6" y="13" width="28" height="14">
<path d="M33.9513 13H6V27H33.9513V13Z" fill="white"/>
</mask>
<g mask="url(#mask0_1205_243)">
<path d="M6.12104 14.9765C6.07107 14.749 6.03776 14.5901 6.02238 14.4997C6.00784 14.4183 6.00012 14.3358 5.99932 14.253C5.99545 14.0652 6.03976 13.8799 6.12745 13.7172C6.21282 13.5625 6.32605 13.4274 6.46058 13.3199C6.59818 13.2117 6.75261 13.1305 6.91672 13.0801C7.08292 13.0263 7.25561 12.9991 7.42923 12.9992C7.59582 12.9963 7.76144 13.027 7.9174 13.0897C8.05068 13.1423 8.17206 13.2245 8.2736 13.3308C8.38945 13.4514 8.47495 13.6012 8.52217 13.7666C8.57 13.931 8.61869 14.1201 8.66824 14.3339L10.4364 22.243C10.4928 22.5171 10.5415 22.7728 10.5825 23.0104C10.6222 23.2474 10.6594 23.4598 10.6901 23.6475C10.7222 23.8681 10.7465 24.0696 10.7657 24.2491H10.8029C10.8285 24.0751 10.8554 23.8777 10.8874 23.6571L10.9951 23.0199C11.036 22.776 11.0899 22.5129 11.1591 22.232L12.9029 14.5449C13.0276 13.9767 13.2386 13.577 13.5359 13.3459C13.8331 13.1148 14.2256 12.9992 14.7134 12.9992C15.2011 12.9992 15.594 13.1148 15.8921 13.3459C16.1903 13.577 16.4012 13.9799 16.5251 14.5545L18.2395 22.2129C18.2958 22.4805 18.3475 22.7363 18.3945 22.9802C18.4406 23.2241 18.4803 23.4434 18.5124 23.6379C18.5495 23.8585 18.5841 24.0696 18.6149 24.2696H18.652C18.684 24.0627 18.7148 23.8476 18.7468 23.627C18.7776 23.4338 18.8135 23.2159 18.8545 22.9747C18.8955 22.7336 18.9429 22.4869 18.9992 22.232L20.656 14.3434C20.7059 14.1228 20.7534 13.9324 20.7969 13.7624C20.8363 13.6031 20.9141 13.4576 21.0224 13.3404C21.1312 13.2257 21.2625 13.1382 21.4068 13.0842C21.5624 13.0263 21.7263 12.9975 21.8911 12.9992C22.0547 12.9992 22.2174 13.0246 22.3742 13.0746C22.5295 13.1219 22.6758 13.1984 22.806 13.3007C22.9327 13.3986 23.0395 13.5231 23.1199 13.6665C23.2053 13.8162 23.2497 13.9886 23.248 14.1639C23.248 14.1968 23.248 14.2325 23.248 14.2681C23.248 14.3037 23.2378 14.3503 23.2288 14.4051C23.2198 14.4599 23.207 14.5243 23.1916 14.6011C23.1763 14.6778 23.1558 14.771 23.1301 14.8751L20.6739 25.2028C20.6135 25.4559 20.5364 25.704 20.4433 25.9455C20.3676 26.1502 20.2544 26.3366 20.1101 26.4936C19.939 26.6732 19.7298 26.8058 19.5002 26.88C19.2141 26.9696 18.9168 27.0116 18.6187 27.0047C18.3294 27.0124 18.0409 26.9703 17.7641 26.88C17.5417 26.8023 17.3394 26.67 17.1734 26.4936C17.0306 26.3382 16.9216 26.1511 16.8544 25.9455C16.7704 25.702 16.6981 25.4541 16.6379 25.2028L14.9568 17.8266C14.9072 17.5992 14.8616 17.3708 14.8197 17.1415C14.78 16.9113 14.7428 16.7017 14.7121 16.5139C14.6813 16.2933 14.6493 16.0864 14.6186 15.8918H14.5801C14.5558 16.0933 14.5276 16.3029 14.4968 16.5249C14.4648 16.7126 14.4289 16.9195 14.3879 17.147C14.3469 17.3744 14.302 17.6047 14.2521 17.839L12.58 25.2028C12.5108 25.4841 12.4391 25.7317 12.3647 25.9455C12.2965 26.1506 12.1877 26.3375 12.0457 26.4936C11.8771 26.6685 11.6727 26.7989 11.4486 26.8745C11.1689 26.9652 10.8773 27.0073 10.5851 26.9992C10.2899 27.0057 9.99564 26.9636 9.71248 26.8745C9.48311 26.8 9.2739 26.6674 9.10259 26.4881C8.95924 26.3303 8.84608 26.1442 8.76946 25.94C8.6762 25.6987 8.59955 25.4505 8.54011 25.1973L6.12104 14.9765Z" fill="url(#paint0_linear_1205_243)"/>
<path d="M24.2391 15.4169C24.0536 15.3016 23.8971 15.1399 23.783 14.9455C23.6988 14.7873 23.6546 14.6083 23.6549 14.4262C23.6562 14.2614 23.6861 14.0983 23.7433 13.9452C23.8023 13.7828 23.8892 13.6336 23.9995 13.5054C24.109 13.3765 24.2392 13.2698 24.3839 13.1902C24.5325 13.1103 24.6969 13.0699 24.8631 13.0724C24.9831 13.0709 25.1024 13.0922 25.2155 13.1354C25.3603 13.1983 25.4986 13.2773 25.628 13.3711L33.2312 18.674C33.467 18.8212 33.6644 19.0295 33.8052 19.2797C33.9053 19.492 33.9558 19.727 33.9526 19.9648C33.9541 20.2007 33.9008 20.4333 33.7975 20.6417C33.6578 20.8921 33.4635 21.1027 33.2312 21.2556L25.5653 26.59C25.4236 26.685 25.2759 26.7693 25.1232 26.8422C25.0067 26.8941 24.8817 26.9207 24.7555 26.9202C24.6002 26.9205 24.4468 26.883 24.307 26.8106C24.1711 26.7417 24.0488 26.6455 23.947 26.527C23.847 26.409 23.7672 26.2731 23.7112 26.1255C23.6544 25.9839 23.6243 25.8316 23.6228 25.6774C23.6158 25.4854 23.6602 25.2952 23.751 25.1293C23.8641 24.9509 24.0091 24.7982 24.1776 24.6799L30.7968 20.0593L24.2391 15.4169Z" fill="url(#paint1_linear_1205_243)"/>
<path d="M24.5184 20.9555C25.0138 20.9555 25.4153 20.526 25.4153 19.9963C25.4153 19.4666 25.0138 19.0371 24.5184 19.0371C24.0231 19.0371 23.6215 19.4666 23.6215 19.9963C23.6215 20.526 24.0231 20.9555 24.5184 20.9555Z" fill="url(#paint2_linear_1205_243)"/>
</g>
</g>
<defs>
<linearGradient id="paint0_linear_1205_243" x1="38.1816" y1="19.9996" x2="13.6305" y2="2.45349" gradientUnits="userSpaceOnUse">
<stop stop-color="#4F46E5"/>
<stop offset="0.5" stop-color="#3B82F6"/>
<stop offset="1" stop-color="#2DD4BF"/>
</linearGradient>
<linearGradient id="paint1_linear_1205_243" x1="38.1818" y1="19.9998" x2="13.6307" y2="2.45367" gradientUnits="userSpaceOnUse">
<stop stop-color="#4F46E5"/>
<stop offset="0.5" stop-color="#3B82F6"/>
<stop offset="1" stop-color="#2DD4BF"/>
</linearGradient>
<linearGradient id="paint2_linear_1205_243" x1="38.1818" y1="19.9998" x2="13.6307" y2="2.45367" gradientUnits="userSpaceOnUse">
<stop stop-color="#4F46E5"/>
<stop offset="0.5" stop-color="#3B82F6"/>
<stop offset="1" stop-color="#2DD4BF"/>
</linearGradient>
<clipPath id="clip0_1205_243">
<rect width="28" height="14" fill="white" transform="translate(6 13)"/>
</clipPath>
</defs>
</svg>
