<svg width="134" height="134" viewBox="0 0 134 134" fill="none" xmlns="http://www.w3.org/2000/svg">
<path d="M5.5401 46.1888C5.3188 45.2469 5.17126 44.5886 5.10317 44.2141C5.03876 43.8774 5.00458 43.5356 5.00103 43.1928C4.9839 42.4153 5.18015 41.6479 5.56846 40.9741C5.94654 40.3334 6.448 39.7741 7.04379 39.3286C7.65313 38.8807 8.33706 38.5445 9.06382 38.3356C9.79987 38.1131 10.5646 38.0003 11.3335 38.0008C12.0713 37.9887 12.8047 38.1158 13.4955 38.3753C14.0857 38.5935 14.6232 38.9338 15.0729 39.374C15.5859 39.8731 15.9646 40.4938 16.1737 41.1784C16.3855 41.8593 16.6012 42.6424 16.8206 43.5275L24.6511 76.2796C24.9008 77.4144 25.1163 78.4736 25.298 79.4572C25.4738 80.4388 25.6384 81.3184 25.7746 82.0957C25.9165 83.0093 26.0242 83.8435 26.1094 84.5868H26.274C26.3874 83.8662 26.5066 83.0491 26.6484 82.1355L27.1251 79.4969C27.3066 78.4868 27.5449 77.3974 27.8514 76.2342L35.5741 44.4014C36.1264 42.0484 37.0608 40.3934 38.3773 39.4364C39.6936 38.4793 41.4319 38.0008 43.5919 38.0008C45.7519 38.0008 47.492 38.4793 48.8122 39.4364C50.1325 40.3934 51.0669 42.0617 51.6154 44.4411L59.2076 76.1548C59.4572 77.2631 59.686 78.3224 59.8941 79.3324C60.0985 80.3423 60.2743 81.2502 60.4162 82.0559C60.5808 82.9695 60.7339 83.8435 60.8702 84.6719H61.0346C61.1765 83.815 61.3127 82.9243 61.4546 82.0107C61.5908 81.2105 61.7496 80.3083 61.9312 79.3097C62.1127 78.311 62.3227 77.2896 62.5723 76.2342L69.9093 43.5673C70.1306 42.6537 70.3406 41.865 70.5335 41.1614C70.7081 40.5016 71.0524 39.8991 71.5321 39.4137C72.0141 38.9385 72.5954 38.5761 73.2345 38.3526C73.9237 38.1128 74.6493 37.9938 75.3793 38.0008C76.1037 38.0007 76.8243 38.1058 77.5184 38.3129C78.2065 38.5086 78.8541 38.8257 79.4308 39.2491C79.992 39.6547 80.465 40.1701 80.8209 40.7642C81.1993 41.384 81.3959 42.0977 81.3884 42.8239C81.3884 42.9601 81.3884 43.1077 81.3884 43.2552C81.3884 43.4027 81.343 43.5956 81.3032 43.8226C81.2636 44.0496 81.2067 44.3163 81.1388 44.634C81.0706 44.9518 80.9798 45.3376 80.8663 45.7689L69.9887 88.536C69.7212 89.584 69.3798 90.6118 68.9674 91.6115C68.6324 92.4592 68.1308 93.2311 67.4919 93.8812C66.7343 94.6252 65.8075 95.1742 64.791 95.4813C63.5239 95.8525 62.2073 96.0266 60.8871 95.9978C59.606 96.0297 58.3281 95.8553 57.1023 95.4813C56.1174 95.1599 55.2214 94.6119 54.4865 93.8812C53.854 93.238 53.3715 92.463 53.0736 91.6115C52.7016 90.6034 52.3814 89.577 52.1148 88.536L44.6701 57.9913C44.4506 57.0494 44.2483 56.1038 44.0628 55.1543C43.8869 54.2009 43.7223 53.3327 43.5863 52.5553C43.45 51.6418 43.3081 50.785 43.1721 49.9792H43.0017C42.894 50.8133 42.7691 51.6815 42.6329 52.6008C42.491 53.3781 42.3322 54.2349 42.1506 55.1768C41.9691 56.1187 41.7704 57.0721 41.5491 58.0423L34.1442 88.536C33.8377 89.7011 33.52 90.7263 33.1908 91.6115C32.8886 92.4609 32.4067 93.235 31.778 93.8812C31.0313 94.6056 30.1259 95.1456 29.1338 95.4588C27.8949 95.8343 26.6035 96.0087 25.3094 95.9751C24.0024 96.0018 22.6991 95.8276 21.4451 95.4588C20.4293 95.1502 19.5028 94.6012 18.7442 93.8585C18.1093 93.2052 17.6082 92.4343 17.2689 91.5888C16.8558 90.5897 16.5164 89.5618 16.2531 88.5133L5.5401 46.1888Z"/>
<path d="M85.7766 48.0119C84.9549 47.5346 84.2618 46.8647 83.7566 46.0599C83.3837 45.4046 83.188 44.6634 83.1891 43.9094C83.1949 43.2269 83.3276 42.5515 83.5806 41.9177C83.8421 41.2451 84.227 40.6273 84.7155 40.0962C85.2002 39.5627 85.7767 39.1207 86.4178 38.7912C87.0758 38.4604 87.8037 38.293 88.54 38.3032C89.0714 38.297 89.5998 38.3853 90.1005 38.5642C90.7419 38.8247 91.3543 39.1518 91.9275 39.5402L125.599 61.4997C126.643 62.1094 127.517 62.9718 128.141 64.0078C128.584 64.8869 128.808 65.8604 128.793 66.8448C128.8 67.8217 128.564 68.7849 128.107 69.648C127.488 70.685 126.627 71.5571 125.599 72.19L91.6495 94.28C91.0223 94.6736 90.3681 95.0224 89.6919 95.3242C89.1759 95.5393 88.6223 95.6493 88.0633 95.6475C87.3755 95.6487 86.6964 95.4934 86.0774 95.1936C85.4752 94.9084 84.9338 94.5096 84.4829 94.0191C84.0399 93.5304 83.6866 92.9677 83.4387 92.3565C83.1869 91.77 83.0537 91.1392 83.0473 90.501C83.016 89.7058 83.213 88.9182 83.6148 88.2312C84.1158 87.4925 84.758 86.8599 85.5042 86.37L114.818 67.2363L85.7766 48.0119Z" />
<path d="M87.0135 70.947C89.2072 70.947 90.9856 69.1687 90.9856 66.975C90.9856 64.7813 89.2072 63.0029 87.0135 63.0029C84.8198 63.0029 83.0415 64.7813 83.0415 66.975C83.0415 69.1687 84.8198 70.947 87.0135 70.947Z" />
    <style>
        path { fill: #252525; }
        @media (prefers-color-scheme: dark) {
            path { fill: #FFF; }
        }
    </style>
</svg>
