<svg width="77" height="36" viewBox="0 0 77 36" fill="none" xmlns="http://www.w3.org/2000/svg">
<g clip-path="url(#clip0)">
<path d="M0.333551 5.08355C0.196133 4.49864 0.104514 4.08991 0.0622313 3.85736C0.0222366 3.64826 0.0010135 3.436 -0.00118986 3.22312C-0.0118259 2.74032 0.110038 2.26383 0.351164 1.84542C0.585938 1.44756 0.897327 1.10025 1.26729 0.823592C1.64567 0.545503 2.07037 0.33673 2.52166 0.206973C2.97872 0.0688547 3.45362 -0.00119199 3.93108 -0.000914753C4.3892 -0.00841805 4.84464 0.0704777 5.27355 0.23164C5.64006 0.367124 5.97385 0.578443 6.25309 0.851781C6.57167 1.16175 6.8068 1.54716 6.93666 1.97226C7.0682 2.39509 7.20209 2.88134 7.33834 3.43101L12.2008 23.7689C12.3559 24.4736 12.4897 25.1313 12.6025 25.7421C12.7117 26.3516 12.8139 26.8978 12.8985 27.3805C12.9866 27.9478 13.0535 28.4658 13.1064 28.9274H13.2086C13.279 28.4799 13.353 27.9725 13.4411 27.4052L13.7371 25.7667C13.8498 25.1395 13.9978 24.463 14.1881 23.7407L18.9836 3.97364C19.3266 2.51254 19.9068 1.48484 20.7243 0.890541C21.5417 0.296237 22.6211 -0.000914753 23.9624 -0.000914753C25.3037 -0.000914753 26.3842 0.296237 27.204 0.890541C28.0239 1.48484 28.6041 2.52076 28.9447 3.9983L33.6592 23.6914C33.8142 24.3796 33.9563 25.0374 34.0855 25.6646C34.2124 26.2917 34.3216 26.8555 34.4097 27.3558C34.5119 27.9231 34.607 28.4658 34.6916 28.9802H34.7937C34.8818 28.4481 34.9664 27.895 35.0545 27.3277C35.1391 26.8308 35.2377 26.2706 35.3505 25.6505C35.4632 25.0303 35.5936 24.3961 35.7486 23.7407L40.3046 3.45568C40.442 2.88839 40.5724 2.39861 40.6922 1.96169C40.8006 1.55202 41.0144 1.17787 41.3123 0.876443C41.6116 0.581385 41.9726 0.356354 42.3694 0.217543C42.7974 0.0686429 43.248 -0.00525971 43.7013 -0.000914753C44.1511 -0.000993517 44.5986 0.0642877 45.0296 0.192881C45.4569 0.31445 45.859 0.511332 46.2171 0.774263C46.5656 1.02609 46.8593 1.34617 47.0803 1.71505C47.3153 2.09996 47.4374 2.54315 47.4327 2.99409C47.4327 3.07866 47.4327 3.17027 47.4327 3.26188C47.4327 3.35349 47.4045 3.47329 47.3798 3.61424C47.3552 3.75518 47.3199 3.92079 47.2777 4.1181C47.2354 4.31542 47.179 4.55502 47.1085 4.82281L40.3539 31.3797C40.1878 32.0305 39.9758 32.6687 39.7197 33.2895C39.5117 33.8159 39.2002 34.2952 38.8035 34.6989C38.333 35.1609 37.7575 35.5018 37.1263 35.6925C36.3395 35.923 35.5219 36.0311 34.7021 36.0132C33.9066 36.033 33.1131 35.9247 32.3519 35.6925C31.7403 35.4929 31.1839 35.1526 30.7276 34.6989C30.3348 34.2995 30.0352 33.8182 29.8502 33.2895C29.6192 32.6635 29.4204 32.0261 29.2548 31.3797L24.6319 12.4125C24.4956 11.8276 24.37 11.2404 24.2548 10.6508C24.1456 10.0588 24.0434 9.51969 23.9589 9.03696C23.8743 8.46967 23.7862 7.93762 23.7017 7.43728H23.5959C23.529 7.95524 23.4515 8.49434 23.3669 9.06516C23.2788 9.54788 23.1802 10.0799 23.0674 10.6648C22.9547 11.2497 22.8313 11.8417 22.6939 12.4442L18.0957 31.3797C17.9054 32.1032 17.7081 32.7398 17.5037 33.2895C17.316 33.8169 17.0168 34.2976 16.6264 34.6989C16.1627 35.1487 15.6005 35.484 14.9844 35.6785C14.2151 35.9117 13.4132 36.02 12.6096 35.9991C11.798 36.0157 10.9887 35.9075 10.21 35.6785C9.57923 35.4869 9.0039 35.146 8.53282 34.6848C8.1386 34.2791 7.8274 33.8004 7.6167 33.2754C7.36024 32.655 7.14944 32.0167 6.98598 31.3656L0.333551 5.08355Z" fill="#252525"/>
<path d="M50.1576 6.21551C49.6474 5.91912 49.217 5.50314 48.9033 5.00341C48.6717 4.59648 48.5502 4.1362 48.5509 3.66799C48.5545 3.24422 48.6369 2.82482 48.794 2.43122C48.9564 2.01357 49.1954 1.62996 49.4987 1.30017C49.7997 0.968879 50.1577 0.694376 50.5558 0.489756C50.9644 0.284385 51.4164 0.180445 51.8736 0.186732C52.2036 0.182883 52.5317 0.237762 52.8426 0.348811C53.2409 0.51058 53.6212 0.713709 53.9771 0.95486L74.8858 14.591C75.5343 14.9696 76.0771 15.5051 76.4644 16.1484C76.7395 16.6943 76.8786 17.2988 76.8696 17.9101C76.8737 18.5167 76.7272 19.1148 76.4432 19.6508C76.0589 20.2947 75.5246 20.8363 74.8858 21.2293L53.8045 34.9464C53.415 35.1908 53.0088 35.4074 52.5889 35.5948C52.2685 35.7284 51.9247 35.7967 51.5776 35.7956C51.1505 35.7963 50.7288 35.6999 50.3444 35.5137C49.9705 35.3366 49.6343 35.089 49.3543 34.7844C49.0792 34.4809 48.8598 34.1315 48.7059 33.752C48.5495 33.3878 48.4668 32.9961 48.4628 32.5998C48.4434 32.106 48.5657 31.6169 48.8152 31.1903C49.1263 30.7316 49.5251 30.3388 49.9885 30.0346L68.1911 18.1532L50.1576 6.21551Z" fill="#252525"/>
<path d="M50.9257 20.4577C52.2879 20.4577 53.3922 19.3534 53.3922 17.9912C53.3922 16.629 52.2879 15.5247 50.9257 15.5247C49.5635 15.5247 48.4592 16.629 48.4592 17.9912C48.4592 19.3534 49.5635 20.4577 50.9257 20.4577Z" fill="#252525"/>
</g>
<defs>
<clipPath id="clip0">
<rect width="76.866" height="36" fill="white"/>
</clipPath>
</defs>
</svg>
