<svg width="40" height="40" viewBox="0 0 40 40" fill="none" xmlns="http://www.w3.org/2000/svg">
<rect width="40" height="40" rx="20" fill="white"/>
<g clip-path="url(#clip0_501_114)">
<path d="M22.1296 7C21.0053 7.00081 19.9208 7.18822 18.8768 7.56091C17.8331 7.93411 16.9027 8.44675 16.0858 9.09853C15.2695 9.75062 14.589 10.5129 14.043 11.3856C13.4981 12.2584 13.159 13.1952 13.0251 14.1953C12.8351 15.6146 12.9689 16.7312 13.4255 17.545C13.8807 18.3594 14.4974 19.0161 15.2755 19.5159C16.0524 20.0163 16.9198 20.4052 17.8787 20.6841C18.8364 20.963 19.7133 21.2714 20.5087 21.6081C21.3034 21.9455 21.944 22.3702 22.4303 22.8817C22.9157 23.3935 23.087 24.1266 22.9444 25.0807C22.8888 25.4531 22.7632 25.8259 22.5679 26.1979C22.3727 26.5704 22.0954 26.908 21.7364 27.2103C21.3776 27.5129 20.9344 27.7575 20.4074 27.9436C19.8802 28.1303 19.2686 28.223 18.5715 28.2231C18.1298 28.2232 17.6831 28.136 17.2319 27.9615C16.7799 27.7869 16.3342 27.5663 15.8953 27.2986C15.4554 27.0314 15.0138 26.735 14.5699 26.4088C14.1256 26.0834 13.7021 25.7694 13.3007 25.4668L11 29.5849C12.2912 30.4923 13.5447 31.1903 14.761 31.6788C15.9756 32.1674 17.2406 32.4118 18.5575 32.4118C19.6892 32.4118 20.7779 32.2372 21.8239 31.888C22.8703 31.539 23.8145 31.0326 24.6568 30.3693C25.5001 29.7059 26.2113 28.8913 26.7911 27.9252C27.3713 26.9595 27.7585 25.8595 27.9511 24.6255C28.1726 23.206 28.0683 22.0713 27.6377 21.2216C27.2055 20.3724 26.6062 19.6859 25.8394 19.1626C25.0716 18.6392 24.2081 18.2327 23.2504 17.9419C22.2913 17.6516 21.4105 17.3494 20.6069 17.0355C19.8026 16.7218 19.1476 16.3501 18.6418 15.9197C18.1354 15.4897 17.9359 14.8905 18.0439 14.1227C18.1616 13.285 18.568 12.5867 19.2646 12.0279C19.9616 11.469 20.7745 11.1893 21.7019 11.1887C22.5339 11.1882 23.3038 11.3681 24.0116 11.7282C24.7178 12.0888 25.5634 12.5475 26.5467 13.1054L26.5472 7.88463C25.1062 7.29444 23.633 6.99879 22.1296 7Z" fill="url(#paint0_linear_501_114)"/>
<path d="M26.5479 7.88477V13.1048L29.0005 9.19409C28.1938 8.65964 27.3759 8.22394 26.5479 7.88477Z" fill="#3E9ECA"/>
</g>
<defs>
<linearGradient id="paint0_linear_501_114" x1="19.5348" y1="32.4126" x2="19.5348" y2="5.32505" gradientUnits="userSpaceOnUse">
<stop/>
<stop offset="1" stop-color="#1D1D1D"/>
</linearGradient>
<clipPath id="clip0_501_114">
<rect width="18" height="25.4118" fill="white" transform="translate(11 7)"/>
</clipPath>
</defs>
</svg>
